<svg width="24" height="24" viewBox="0 0 24 24" fill="none" xmlns="http://www.w3.org/2000/svg">
<path fill-rule="evenodd" clip-rule="evenodd" d="M4.36256 16.7283L10.7133 6.14374C11.2959 5.17273 12.7031 5.17273 13.2858 6.14374L19.6365 16.7283C20.2363 17.728 19.5162 19 18.3502 19H5.6488C4.48286 19 3.76269 17.728 4.36256 16.7283ZM12.6753 10.3438H11.3237L11.4409 14.2734H12.5581L12.6753 10.3438ZM11.2926 15.6953C11.2848 16.0898 11.609 16.4063 11.9957 16.4063C12.3707 16.4063 12.7028 16.0898 12.7067 15.6953C12.7028 15.3125 12.3707 15 11.9957 15C11.609 15 11.2848 15.3125 11.2926 15.6953Z" fill="#FF334B" fill-opacity="0.8"/>
</svg>
