<svg width="24" height="24" viewBox="0 0 24 24" fill="none" xmlns="http://www.w3.org/2000/svg">
<path fill-rule="evenodd" clip-rule="evenodd" d="M12 20C16.4183 20 20 16.4183 20 12C20 7.58172 16.4183 4 12 4C7.58172 4 4 7.58172 4 12C4 16.4183 7.58172 20 12 20ZM9.7985 11.6C10.3508 11.6 10.7985 11.1523 10.7985 10.6C10.7985 10.0477 10.3508 9.59999 9.7985 9.59999C9.24622 9.59999 8.7985 10.0477 8.7985 10.6C8.7985 11.1523 9.24622 11.6 9.7985 11.6ZM15.1987 10.6C15.1987 11.1523 14.751 11.6 14.1987 11.6C13.6464 11.6 13.1987 11.1523 13.1987 10.6C13.1987 10.0477 13.6464 9.59999 14.1987 9.59999C14.751 9.59999 15.1987 10.0477 15.1987 10.6ZM8.05002 13.2C8.05002 13.5787 8.19297 13.9595 8.37823 14.2842C8.57086 14.6218 8.84336 14.9592 9.17931 15.2593C9.85147 15.8598 10.8234 16.35 12 16.35C13.1767 16.35 14.1486 15.8598 14.8207 15.2593C15.1567 14.9592 15.4292 14.6218 15.6218 14.2842C15.8071 13.9595 15.95 13.5787 15.95 13.2H14.45C14.45 13.2213 14.4333 13.3405 14.319 13.5408C14.2121 13.7282 14.0451 13.9408 13.8214 14.1407C13.3742 14.5402 12.7461 14.85 12 14.85C11.2539 14.85 10.6258 14.5402 10.1787 14.1407C9.95497 13.9408 9.78799 13.7282 9.68105 13.5408C9.56673 13.3405 9.55002 13.2213 9.55002 13.2H8.05002Z" fill="#1B803D" fill-opacity="0.8"/>
</svg>
