<svg width="390" height="82" viewBox="0 0 390 82" fill="none" xmlns="http://www.w3.org/2000/svg">
<rect x="64" y="10" width="300" height="72" rx="20" fill="white"/>
<path d="M209 38L207.59 39.41L213.17 45L201 45L201 47L213.17 47L207.58 52.58L209 54L217 46L209 38Z" fill="#949494"/>
<path d="M131.255 48.8496C128.026 48.8579 125.942 49.8872 125.942 51.6719C125.942 53.415 128.026 54.4609 131.255 54.4609C134.517 54.4609 136.576 53.415 136.584 51.6719C136.576 49.8872 134.517 48.8579 131.255 48.8496ZM124.531 47.7705H138.145V46.2764H131.637V43.5537H129.811V46.2764H124.531V47.7705ZM126.092 41.6445H134.642C134.642 42.7319 134.617 43.7944 134.243 45.2471L136.069 45.4131C136.493 43.8774 136.493 42.6157 136.484 41.4287V40.1836H126.092V41.6445ZM127.802 51.6719C127.785 50.7588 129.088 50.2441 131.255 50.2441C133.43 50.2441 134.741 50.7588 134.758 51.6719C134.741 52.5518 133.43 53.0332 131.255 53.0332C129.088 53.0332 127.785 52.5518 127.802 51.6719ZM146.334 40.4824H139.494V47.9365H140.656C143.727 47.9448 145.363 47.8867 147.23 47.4717L147.048 45.9941C145.379 46.3345 143.893 46.4258 141.337 46.4424V41.9932H146.334V40.4824ZM141.021 50.6592H149.405V54.4775H151.248V49.1816H141.021V50.6592ZM145.553 44.7656H149.405V48.501H151.248V39.4697H149.405V43.2715H145.553V44.7656Z" fill="#B7B7B7"/>
<path d="M260.039 40.8477H249.215V42.3252H258.18C258.171 44.1265 258.171 46.2598 257.582 49.1816L259.441 49.3809C260.022 46.2432 260.022 44.1597 260.039 42.292V40.8477ZM247.787 52.5352H261.467V51.0244H254.66V45.8115H252.834V51.0244H247.787V52.5352ZM275.649 46.8408H269.706V44.749H267.88V46.8408H261.969V48.335H275.649V46.8408ZM262.717 44.168L263.381 45.6123C265.854 45.2388 267.813 44.1182 268.776 42.5493C269.731 44.1265 271.698 45.2388 274.155 45.6123L274.869 44.168C271.739 43.7778 269.722 42.1177 269.722 40.2832V39.7188H267.846V40.2832C267.846 42.0762 265.813 43.7778 262.717 44.168ZM263.48 50.9746H272.13V54.4775H273.972V49.5303H263.48V50.9746ZM288.736 39.4697H286.91V44.8984H284.087V46.3926H286.91V54.4941H288.736V39.4697ZM276.833 51.041H278.011C280.692 51.0244 282.618 50.9414 284.801 50.6094L284.619 49.1152C282.685 49.4224 280.975 49.5054 278.692 49.5137V46.4258H283.257V44.9648H278.692V42.2754H283.855V40.7646H276.833V51.041ZM298.27 40.8809H291.131V50.8252H298.27V40.8809ZM292.957 49.3477V42.3252H296.477V49.3477H292.957ZM300.959 54.4941H302.819V39.4697H300.959V54.4941ZM307.206 40.1338H305.38V46.6748H306.575C308.891 46.6831 311.066 46.5503 313.481 46.1104L313.232 44.5996C311.157 44.9897 309.215 45.1143 307.206 45.1392V40.1338ZM307.206 49.1982H315.241V50.2441H307.223V54.2949H317.516V52.8008H309.065V51.6553H317.084V47.7373H307.206V49.1982ZM311.323 43.2051H315.241V47.123H317.084V39.4697H315.241V41.7275H311.323V43.2051Z" fill="#B7B7B7"/>
<path d="M39.0554 25.7174C39.3667 24.8218 40.6333 24.8218 40.9446 25.7174L42.5929 30.4594C42.7302 30.8545 43.0989 31.1224 43.5171 31.1309L48.5364 31.2332C49.4843 31.2525 49.8757 32.457 49.1202 33.0298L45.1196 36.0629C44.7863 36.3156 44.6455 36.749 44.7666 37.1493L46.2204 41.9546C46.4949 42.8621 45.4703 43.6065 44.692 43.065L40.5712 40.1975C40.2279 39.9586 39.7721 39.9586 39.4288 40.1975L35.308 43.065C34.5297 43.6065 33.5051 42.8621 33.7796 41.9546L35.2334 37.1493C35.3545 36.749 35.2137 36.3156 34.8804 36.0629L30.8798 33.0298C30.1243 32.457 30.5157 31.2525 31.4636 31.2332L36.4829 31.1309C36.9011 31.1224 37.2698 30.8545 37.4071 30.4594L39.0554 25.7174Z" fill="#DFDFDF"/>
<rect width="390" height="82" fill="url(#paint0_linear_49_553)"/>
<defs>
<linearGradient id="paint0_linear_49_553" x1="195" y1="0" x2="195" y2="82" gradientUnits="userSpaceOnUse">
<stop stop-color="#F5F5F5" stop-opacity="0"/>
<stop offset="1" stop-color="#F5F5F5"/>
</linearGradient>
</defs>
</svg>
